<svg width="640" height="320" viewBox="0 0 640 320" fill="none" xmlns="http://www.w3.org/2000/svg">
  <rect width="640" height="320" rx="32" fill="#0F172A"/>
  <circle cx="130" cy="160" r="96" fill="#1E293B" stroke="#38BDF8" stroke-width="6"/>
  <rect x="78" y="110" width="104" height="84" rx="24" fill="#0B1220" stroke="#38BDF8" stroke-width="6"/>
  <circle cx="110" cy="150" r="12" fill="#38BDF8"/>
  <circle cx="150" cy="150" r="12" fill="#38BDF8"/>
  <path d="M104 178H156" stroke="#38BDF8" stroke-width="6" stroke-linecap="round"/>
  <rect x="116" y="70" width="28" height="22" rx="6" fill="#0B1220" stroke="#38BDF8" stroke-width="6"/>
  <path d="M130 70V46" stroke="#38BDF8" stroke-width="6" stroke-linecap="round"/>
  <circle cx="130" cy="40" r="10" fill="#38BDF8"/>
  <path d="M226 120C264 88 320 72 376 72C447 72 514 98 558 136" stroke="#94A3B8" stroke-width="10" stroke-linecap="round"/>
  <path d="M226 200C270 236 330 252 394 248C461 244 520 216 560 176" stroke="#38BDF8" stroke-width="10" stroke-linecap="round"/>
  <path d="M540 160L572 138" stroke="#38BDF8" stroke-width="10" stroke-linecap="round"/>
  <path d="M540 160L572 182" stroke="#38BDF8" stroke-width="10" stroke-linecap="round"/>
  <circle cx="560" cy="160" r="20" fill="#0B1220" stroke="#38BDF8" stroke-width="6"/>
  <circle cx="560" cy="160" r="6" fill="#38BDF8"/>
  <text x="240" y="165" font-family="'Segoe UI', 'Inter', sans-serif" font-size="40" font-weight="600" fill="#E2E8F0">dependabit</text>
</svg>
